<svg xmlns="http://www.w3.org/2000/svg" viewBox="0 0 512.89 185.32"><defs><style>.cls-1{fill:#c7c7c7;}.cls-2,.cls-3{fill:none;stroke:#c7c7c7;stroke-miterlimit:10;}.cls-2{stroke-width:11.78px;}.cls-3{stroke-width:1.85px;}</style></defs><g id="Layer_2" data-name="Layer 2"><g id="Layer_1-2" data-name="Layer 1"><path id="Border" class="cls-1" d="M295.67,0H217.22a53.43,53.43,0,0,0-53.43,53.44v78.44a53.44,53.44,0,0,0,53.43,53.44h78.45a53.44,53.44,0,0,0,53.43-53.44V53.44A53.43,53.43,0,0,0,295.67,0Zm36.81,131.53a37.23,37.23,0,0,1-37.24,37.23H217.6a37.24,37.24,0,0,1-37.24-37.23V53.88A37.24,37.24,0,0,1,217.6,16.65h77.64a37.23,37.23,0,0,1,37.24,37.23Z"/><path id="Planet" class="cls-1" d="M256.43,45.34A47.38,47.38,0,1,0,303.8,92.71,47.37,47.37,0,0,0,256.43,45.34Zm0,78.34a31,31,0,1,1,31-31A31,31,0,0,1,256.42,123.68Z"/><circle id="Star_1" data-name="Star 1" class="cls-1" cx="300.25" cy="37.81" r="9.38"/><path id="Ring" class="cls-2" d="M216.46,93.8c-12.3,9-19,17.67-16.62,23.21,4,9.4,32.65,6.15,63.91-7.26s53.34-31.92,49.3-41.32c-2.43-5.67-13.78-6.74-29.26-3.76"/><circle id="Star_2" data-name="Star 2" class="cls-3" cx="280.19" cy="36.09" r="2.93"/><path class="cls-1" d="M119,0V111.24h19.79v32.63H119v41.45H80V143.87H0V114.72Q5.88,103,14.71,88.11T34.36,57.63Q45.19,42,57.23,27A334.48,334.48,0,0,1,81.29,0ZM80,48.67Q69.52,62.3,57.76,78.35A203.73,203.73,0,0,0,38,111.24H80Z"/><path class="cls-1" d="M493.1,0V111.24h19.79v32.63H493.1v41.45h-39V143.87h-80V114.72Q380,103,388.81,88.11t19.66-30.48Q419.3,42,431.33,27A334.52,334.52,0,0,1,455.4,0Zm-39,48.67Q443.64,62.3,431.87,78.35a203.73,203.73,0,0,0-19.79,32.89h42Z"/></g></g></svg>