<svg xmlns="http://www.w3.org/2000/svg" viewBox="0 0 253.81 253.81"><defs><style>.cls-1{fill:#c7c7c7;}.cls-2,.cls-3{fill:none;stroke:#c7c7c7;stroke-miterlimit:10;}.cls-2{stroke-width:16.13px;}.cls-3{stroke-width:2.54px;}</style></defs><g id="Layer_2" data-name="Layer 2"><g id="Layer_1-2" data-name="Layer 1"><path id="Border" class="cls-1" d="M180.62,0H73.19A73.19,73.19,0,0,0,0,73.19V180.62a73.19,73.19,0,0,0,73.19,73.19H180.62a73.19,73.19,0,0,0,73.19-73.19V73.19A73.19,73.19,0,0,0,180.62,0ZM231,180.13a51,51,0,0,1-51,51H73.7a51,51,0,0,1-51-51V73.79a51,51,0,0,1,51-51H180a51,51,0,0,1,51,51Z"/><path id="Planet" class="cls-1" d="M126.88,62.09A64.89,64.89,0,1,0,191.76,127,64.89,64.89,0,0,0,126.88,62.09Zm0,107.3a42.41,42.41,0,1,1,42.4-42.4A42.4,42.4,0,0,1,126.87,169.39Z"/><circle id="Star_1" data-name="Star 1" class="cls-1" cx="186.9" cy="51.78" r="12.85"/><path id="Ring" class="cls-2" d="M72.14,128.47c-16.85,12.27-26,24.19-22.76,31.78,5.53,12.88,44.71,8.43,87.53-9.94s73-43.71,67.52-56.59c-3.33-7.76-18.88-9.23-40.08-5.15"/><circle id="Star_2" data-name="Star 2" class="cls-3" cx="159.42" cy="49.43" r="4.01"/></g></g></svg>