<svg xmlns="http://www.w3.org/2000/svg" viewBox="0 0 1257.22 229.1"><g id="Layer_2" data-name="Layer 2"><g id="Layer_1-2" data-name="Layer 1"><path d="M89,50.83a60.09,60.09,0,0,1-10.08-.93c0-6.56-.47-14.29-2.57-20.85C74,22.25,67.93,14.52,58.8,14.52,49.9,14.52,38,21.32,38,33.73A21.64,21.64,0,0,0,41.7,45.45c12.41,19.44,47.08,37.24,64.88,56.45,9.38,10.31,15.23,22.72,15.23,33.73,0,8.9-3.51,19-10.31,27.41-14,17.33-36.54,25.3-59,25.3a92.27,92.27,0,0,1-18-1.64C13.82,182.72,0,171,0,154.84c0-21.55,19.68-34.9,34-34.9,5.62,0,8,2.11,8,4.21a4.57,4.57,0,0,1-1.4,3c-9.37,1.64-16.64,8.67-16.64,17.33a15.86,15.86,0,0,0,.94,5.63c3.75,11,22,17.8,38.89,17.8,13.82,0,27.4-5.39,30.68-15.7a19.43,19.43,0,0,0,.71-5.15,24.33,24.33,0,0,0-3-11C85,122.28,67,108,52.47,98.39,38.89,89.25,21.79,75.2,14.52,58.33A42.76,42.76,0,0,1,11,42.17a39.34,39.34,0,0,1,5.86-20.62C26,6.56,44.27,0,60.91,0c18,0,44.27,12,44.27,32.8A27,27,0,0,1,102.37,45C100,49.66,94.4,50.83,89,50.83Z"/><path d="M153.44,175.22c-.24,10.07-.47,20.85-.47,30.92,0,8,.47,14.76,1.4,19a12.2,12.2,0,0,1-4.21.7c-7.27,0-16.4-5.15-18.74-14.52-1.41-5.86-2.11-15.23-2.11-26.24,0-12.88.7-28.34,1.4-43.57.94-21.55,2.81-57.86,2.81-76.13a13.61,13.61,0,0,1,4.45-.71,19.8,19.8,0,0,1,15,7,21.19,21.19,0,0,1,4.68,11.71c5.39-10.3,14.06-18.5,26.47-18.5a33.72,33.72,0,0,1,10.31,1.64c16.63,5.39,23.19,29.75,23.19,53.41,0,14.76-3.05,36.07-12.65,50.36,9.37-1.17,18.51-4,25.53-11.71a36.92,36.92,0,0,0,8.91-16.4c2.81.47,5.85,3.28,5.85,9.14a31.89,31.89,0,0,1-.47,4.21c-2.57,13.36-12.88,20.38-22,24.37-6.79,3-19.44,4.92-29.75,4.92-5.62,0-11.71,0-17.57-.47A37.62,37.62,0,0,1,153.44,175.22Zm.46-11.95c4,2.82,8.67,5.16,13.12,5.16a13.83,13.83,0,0,0,8.43-3.05c3.05-2.34,5.63-10.77,7.74-19.91a201.81,201.81,0,0,0,5.62-46.62c0-6.32-.24-20.14-9.37-20.14-9.84,0-19.91,18-22.49,36.54l-1.88,26.94C154.61,148.28,154.37,155.54,153.9,163.27Z"/><path d="M332.64,166.32c8.43,0,18-16.63,20.14-24.6,2.58.71,5.86,3.75,5.86,9.84a20.93,20.93,0,0,1-.71,5.16c-4,11.71-15.69,24.36-30.21,24.36-5.63,0-13.59-3.05-18.51-6.8-3.75-2.81-6.79-6.55-7.73-10.54-2.11-9.37-2.81-15.22-2.81-21.08,0-3,.23-6.09.47-9.84,0-.94.23-1.87.23-2.81-3.28,11.24-14.52,44.27-29.28,49.43a19.38,19.38,0,0,1-6.09.93c-8,0-15.7-5.38-21.32-14.28-6.32-9.84-10.54-24.13-11-39.12v-2.58c0-23.9,9.61-52.71,29.05-60.44a32.45,32.45,0,0,1,12.41-2.34A36.4,36.4,0,0,1,302.89,77.3a71.88,71.88,0,0,0,.93-8.43c.24-2.34,1.88-3.51,4.45-3.51,7.26,0,20.38,8.43,20.62,18.74,0,2.34-.47,8.2-1.17,15.22-1.41,13.36-3.05,31.39-3.05,45,0,11,1.17,19.44,4.69,21.08A8.62,8.62,0,0,0,332.64,166.32ZM280.4,147.81c7.49-12.88,15-34.43,19.21-53.41-.71-7.49-6.8-18-14.53-18-2.58,0-5.39,1.17-8.2,4-9.6,10.07-15.22,37-15.22,56.22,0,12,3.28,23.19,6.79,23.19S276.18,155.08,280.4,147.81Z"/><path d="M404.55,108.46c-4.69,0-10.07-2.81-12.88-5.15,3.27-4.22,4.91-12.19,4.91-19,0-5.39-1.17-10.31-4.91-11.48a16.6,16.6,0,0,0-3.05-.47c-11.48,0-18.27,21.56-18.27,43.81,0,17.57,4.21,35.84,13.35,44a21.88,21.88,0,0,0,15,5.39,30.75,30.75,0,0,0,17.1-5.39c8.9-6.09,16.17-16.87,18.74-30,4.22,0,8.2,2.82,8.2,9.61,0,7.26-3.75,18.5-13.82,28.11a49,49,0,0,1-34,13.82c-15,0-31.39-7.5-40.76-20.15-7.26-9.83-11.71-26.7-11.71-42.4,0-15.92,4-32.09,12.65-44C364,63,376.2,57.86,387.21,57.86c12.65,0,24.13,6.33,29.05,15.7a32.28,32.28,0,0,1,3.05,14C419.31,96.51,415.56,108.46,404.55,108.46Z"/><path d="M454.44,119.7c0,15,2.82,29.52,10.78,37.72,5.39,5.85,11.71,8.43,17.8,8.43,8,0,16.17-4,22.73-10.54a47.93,47.93,0,0,0,13.11-25.53c4.45,0,7.73,4.68,7.73,10.77a11.56,11.56,0,0,1-.23,2.81,42.07,42.07,0,0,1-13.12,23.43,54.21,54.21,0,0,1-36.78,14.29c-13.82,0-29-4.69-39.58-18-8.44-10.54-12.19-26.24-12.19-42.4,0-16.4,4-33.26,12.42-45.44a38.12,38.12,0,0,1,32.33-17.34c14.05,0,27.64,7,31.85,16.4a24.52,24.52,0,0,1,2.58,11.24c0,8.44-4.45,16.17-12.65,22.73C481.15,116.19,467.09,119.7,454.44,119.7Zm.47-11A47.37,47.37,0,0,0,472,101.9c7-4.92,10.78-13.35,10.78-19.68,0-6.56-4.22-12.65-9.14-12.65C464.52,69.57,457,90,454.91,108.69Z"/><path d="M555.4,52.24a65.15,65.15,0,0,1,13.12,2.11c3.28.93,5.63,2.81,5.63,4.68,0,3-5.63,3.75-8,6.8a16,16,0,0,0-3,9.37,12.76,12.76,0,0,0,1.63,6.32c4.22,7.73,9.38,17.57,9.38,17.57,7,14,14.75,27.17,14.75,44.27,0,6.56-1.87,15.23-7.73,26.47a109.16,109.16,0,0,0,15.46-10.3,40.34,40.34,0,0,0,12.65-17.81c2.58.94,6.56,2.81,6.56,9.37,0,8.44-4.92,14.53-11,19.45-11.71,9.37-29.75,14.75-41.46,14.75-19.21,0-45.91-5.62-55.52-24.83a24.1,24.1,0,0,1-2.34-10.77c0-6.33,2.11-12.42,8.67-14.76a7.51,7.51,0,0,0,1.4,1.87A221.43,221.43,0,0,0,525.42,111a302,302,0,0,0,8.43-31.86,40.62,40.62,0,0,1-1.17-8.9,20.27,20.27,0,0,1,.94-6.56C536.43,55.75,545.33,52.24,555.4,52.24Zm-30.92,101c1.17,4.92,16.64,15,26.71,15a9.54,9.54,0,0,0,4.45-.93c4-2.11,5.39-6.8,5.39-12.42,0-10.07-4.45-23.42-7.26-30.45a196,196,0,0,0-10.55-22.49c-2.1,7.5-4.45,15.23-7,22.72C532.45,135.4,526.59,146.41,524.48,153.2Z"/><path d="M607.88,158.82c-1.64-4.68-2.11-13.11-2.11-25.06,0-14.06.7-32.33,1.64-51.07,0-2.58.23-6.56.47-9.6-8.2-.24-14.53-.71-15.7-.71a23.12,23.12,0,0,1-.94-5.85c0-1.88.47-3.52,1.88-4,3.28-.94,8.67-1.41,15-1.64.23-6.33.23-11.48.23-19.21,0-11.25,0-18,2.35-25.3a8.13,8.13,0,0,1,5.85-2.11c6.8,0,15.46,6.56,19.21,22.25.47,1.88.7,6.09.7,12.42,0,3.51,0,7.26-.23,11.48,4.45,0,8.43.23,12.18.23a65,65,0,0,0,10.78-.7,10.58,10.58,0,0,1,.7,3.75c0,3.74-2.81,6.56-10.78,8a98.36,98.36,0,0,1-13.82,1.41c-.47,4.68-1.17,9.6-2.1,14.29-2.11,18.74-3.28,34.9-3.28,48.25,0,15.23,1.87,26.47,6.09,29.75a8.15,8.15,0,0,0,5.62,1.88c9.37,0,21.08-12.65,23.42-26.24,2.58.23,6.56,3.28,6.56,9.84a19.45,19.45,0,0,1-1.4,7.26c-5.86,15.7-19,23.19-33.27,23.19C620.06,181.31,612.09,171,607.88,158.82Z"/><path d="M758.5,166.32c8.43,0,18-16.63,20.15-24.6,2.57.71,5.85,3.75,5.85,9.84a20.89,20.89,0,0,1-.7,5.16c-4,11.71-15.7,24.36-30.22,24.36-5.62,0-13.59-3.05-18.51-6.8-3.74-2.81-6.79-6.55-7.72-10.54-2.11-9.37-2.82-15.22-2.82-21.08,0-3,.24-6.09.47-9.84,0-.94.24-1.87.24-2.81C722,141.25,710.71,174.28,696,179.44a19.3,19.3,0,0,1-6.09.93c-8,0-15.69-5.38-21.31-14.28-6.33-9.84-10.54-24.13-11-39.12v-2.58c0-23.9,9.6-52.71,29-60.44A32.5,32.5,0,0,1,699,61.61,36.38,36.38,0,0,1,728.75,77.3a71.67,71.67,0,0,0,.94-8.43c.23-2.34,1.87-3.51,4.45-3.51,7.26,0,20.38,8.43,20.61,18.74,0,2.34-.47,8.2-1.17,15.22-1.4,13.36-3,31.39-3,45,0,11,1.17,19.44,4.68,21.08A8.67,8.67,0,0,0,758.5,166.32Zm-52.24-18.51c7.5-12.88,15-34.43,19.21-53.41-.7-7.49-6.79-18-14.52-18-2.58,0-5.39,1.17-8.2,4-9.61,10.07-15.23,37-15.23,56.22,0,12,3.28,23.19,6.79,23.19S702.05,155.08,706.26,147.81Z"/><path d="M838.85,153.67c0-11.24,2.34-26,2.34-30.45-5.86,17.8-12.88,37.48-21.55,48.25-3.75,4.69-8.67,8.67-15.46,8.67-5.16,0-10.31-2.11-15.23-6.32-5.86-5.16-11-13.12-14.52-24.37a90.23,90.23,0,0,1-3.75-25.3c0-15.46,4-30.68,11.24-42.63,7.73-12.18,19.45-20.61,33.74-20.61,8,0,19.44,4.92,25.29,15.69a48,48,0,0,0,1.41-7.73c.24-1.17,2.34-1.64,4.92-1.64,6.79,0,17.1,4,20.61,10.07a8.52,8.52,0,0,1,.94,4.22c-1.4,9.6-.47,16.87-1.4,33.5-.71,12.88-1.88,43.57-1.88,46.38,4.92-3.51,9.61-7,13.59-10.31a61.5,61.5,0,0,0,11-11.24,11.09,11.09,0,0,1,5.85,9.6c0,2.35-1.17,5.63-3.51,8.9-5.86,8-16.63,15.23-28.58,21.56-1.64,13.11-5.39,26.94-13.12,36.07-7.49,8.9-21.31,13.12-33.73,13.12-8.43,0-27.41-2.58-27.41-15.46a16.33,16.33,0,0,1,2.35-7.73c4.92-7.73,16.86-13.59,27.64-18.74,7.26-3.52,18.74-9.61,18.74-9.61C838.38,173.11,838.85,165.85,838.85,153.67Zm-13.12-19.44c5.39-11.95,9.37-26.24,13.12-39.83-1.41-10.3-8.67-18.5-15.7-18.5-10.31,0-18.74,24.83-21.08,44a141.05,141.05,0,0,0-.94,16.16c0,16.16,3.52,23.89,8.2,23.89C813.78,160,819.4,147.81,825.73,134.23ZM837.21,193c-3.52,1.41-17.81,8.2-21.55,11-1.41.94-4.22,3.05-4.22,4.92,0,2.58,3.75,4.22,8.2,4.22s9.84-1.87,12.65-6.56A52.27,52.27,0,0,0,837.21,193Z"/><path d="M911.46,179a10.64,10.64,0,0,1-5.39,1.17c-7.49,0-15.46-6.32-17.8-12.65-2.81-7-3.75-23.19-3.75-40.29,0-9.6.24-22.49.47-31.62.24-7.5.47-14.29.47-19.68a62.7,62.7,0,0,0-.94-11.25,18.16,18.16,0,0,1,4.92-.7c6.8,0,12.89,4.22,16.63,10.31,4.69,7,5.16,16.63,5.16,26.47v9.13a107.23,107.23,0,0,1,7-18,37.49,37.49,0,0,1-.47-5.16,38.73,38.73,0,0,1,.93-8.43c1.64-6.79,4.22-11.95,7.73-14.76a7.38,7.38,0,0,1,4.92-1.64c7.5,0,17.57,8,17.57,17.34,0,6.32-9.6,17.33-9.6,17.33s4.21,12.18,15.46,14.53a8.09,8.09,0,0,0,2.34.23c7.5,0,14.52-6.56,16.4-14,4,.46,6.56,4,6.56,9.6,0,12-11,19.21-24.36,19.21-13.12,0-24.6-6.33-30.93-15.93a111.07,111.07,0,0,0-8.66,18.27c-3.28,8.43-5.63,17.57-5.63,23.66C910.52,161.63,910.76,169.83,911.46,179Z"/><path d="M1061.15,166.32c8.43,0,18-16.63,20.14-24.6,2.58.71,5.86,3.75,5.86,9.84a20.89,20.89,0,0,1-.7,5.16c-4,11.71-15.7,24.36-30.22,24.36-5.62,0-13.59-3.05-18.51-6.8-3.75-2.81-6.79-6.55-7.73-10.54-2.11-9.37-2.81-15.22-2.81-21.08,0-3,.24-6.09.47-9.84,0-.94.23-1.87.23-2.81-3.28,11.24-14.52,44.27-29.28,49.43a19.34,19.34,0,0,1-6.09.93c-8,0-15.69-5.38-21.32-14.28-6.32-9.84-10.54-24.13-11-39.12v-2.58c0-23.9,9.6-52.71,29-60.44a32.46,32.46,0,0,1,12.42-2.34A36.38,36.38,0,0,1,1031.4,77.3a69.8,69.8,0,0,0,.93-8.43c.24-2.34,1.88-3.51,4.46-3.51,7.26,0,20.38,8.43,20.61,18.74,0,2.34-.47,8.2-1.17,15.22-1.41,13.36-3,31.39-3,45,0,11,1.17,19.44,4.69,21.08A8.67,8.67,0,0,0,1061.15,166.32Zm-52.24-18.51c7.5-12.88,15-34.43,19.21-53.41-.7-7.49-6.8-18-14.53-18-2.57,0-5.38,1.17-8.19,4-9.61,10.07-15.23,37-15.23,56.22,0,12,3.28,23.19,6.79,23.19S1004.69,155.08,1008.91,147.81Z"/><path d="M1227,181.78c-11.25,0-23.66-9.14-27.18-22.49a87.83,87.83,0,0,1-2.57-22.25c0-11.48,1.4-23,1.4-35.61A47.87,47.87,0,0,0,1197.48,90c-.94-3.51-2.34-6.32-4.92-6.32-1.64,0-4,2.34-6.32,6.56-4.45,7.73-9.61,20.85-14.06,34.9-6.56,20.38-12,42.17-12,50.37v1.4a26.83,26.83,0,0,1-7.73,1.17c-7.49,0-15.46-3.28-17.56-11.24a33.05,33.05,0,0,1-.71-7.26c0-8.2,1.64-19.45,2.11-33,.23-5.16.23-10.78.23-15.93,0-14.29-.93-26.47-5.85-26.47s-13.12,20.38-19.91,42.63c-6.09,20.15-11,41.7-11,51.07a10.11,10.11,0,0,1-4,.7c-8.19,0-21.31-6.56-22-15.46-.24-3.28-.47-8-.47-13.35,0-10.54.47-23.66,1.17-33.73.7-12.89,1.87-22.49,1.87-32.33a86.41,86.41,0,0,0-1.17-15.23,15.11,15.11,0,0,1,4.69-.7c6.79,0,15,3.51,18.27,10.54,1.4,3.05,2.57,9.61,2.57,18.51,0,2.1,0,4.45-1.64,31.62.71-3.28,5.63-23.43,12-39.59,4-10.3,8.67-23.19,22.49-23.19,10.31,0,20.38,7.73,24.13,16.87,3.28,8,4,16.86,4,25.53,0,5.15-.23,10.07-.47,17.1,4-15.93,8.9-27.17,13.35-38.88,4-10.78,11.25-20.85,21.79-20.85,9.84,0,22.72,5.38,27.41,20.85a55.63,55.63,0,0,1,1.64,14.28c0,7-.71,14.53-1.17,22.26-.24,4.68-1.18,14.76-1.18,23.89,0,8.67.71,16.63,4,18.74a5.48,5.48,0,0,0,3.74,1.17c3.52,0,7-2.81,10.31-6.79,4.92-6.09,9.14-14.52,10.31-18.74,2.58.47,5.86,3.75,5.86,9.6a20.93,20.93,0,0,1-.71,5.16c-3.28,11.48-15.46,22.72-24.36,25.3A18.21,18.21,0,0,1,1227,181.78Z"/></g></g></svg>