<svg xmlns="http://www.w3.org/2000/svg" viewBox="0 0 710.37 185.32"><defs><style>.cls-1{fill:#c7c7c7}.cls-2,.cls-3{fill:none;stroke:#c7c7c7;stroke-miterlimit:10}.cls-2{stroke-width:11.78px}.cls-3{stroke-width:1.85px}</style></defs><g id="Layer_2" data-name="Layer 2"><g id="Layer_1-2" data-name="Layer 1"><path id="Border" d="M316.26,0H237.81a53.43,53.43,0,0,0-53.43,53.44v78.44a53.44,53.44,0,0,0,53.43,53.44h78.45a53.44,53.44,0,0,0,53.43-53.44V53.44A53.43,53.43,0,0,0,316.26,0Zm36.81,131.53a37.23,37.23,0,0,1-37.23,37.23H238.19A37.23,37.23,0,0,1,201,131.53V53.88a37.23,37.23,0,0,1,37.23-37.23h77.65a37.23,37.23,0,0,1,37.23,37.23Z" class="cls-1"/><path id="Planet" d="M277,45.34a47.38,47.38,0,1,0,47.37,47.37A47.37,47.37,0,0,0,277,45.34Zm0,78.34a31,31,0,1,1,31-31A31,31,0,0,1,277,123.68Z" class="cls-1"/><circle id="Star_1" cx="320.84" cy="37.81" r="9.38" class="cls-1" data-name="Star 1"/><path id="Ring" d="M237.05,93.8c-12.3,9-19,17.67-16.62,23.21,4,9.4,32.65,6.15,63.91-7.26s53.34-31.92,49.3-41.32c-2.43-5.67-13.78-6.74-29.26-3.76" class="cls-2"/><circle id="Star_2" cx="300.78" cy="36.09" r="2.93" class="cls-3" data-name="Star 2"/><path d="M519,185.32q-17.91-31.83-38.77-62.84a642.1,642.1,0,0,0-44.39-58.57V185.32H394.69V0h34q8.82,8.82,19.52,21.66T470,49.07Q481.07,63.65,492,79.29t20.59,30.08V0h41.45V185.32Z" class="cls-1"/><path d="M579.07,185.32V0H704.22V35H620.79V71.4h74.07v34.23H620.79v44.66h89.58v35Z" class="cls-1"/><path d="M124.35,185.32q-17.92-31.83-38.78-62.84A638.48,638.48,0,0,0,41.18,63.91V185.32H0V0H34q8.82,8.82,19.52,21.66t21.8,27.41Q86.37,63.65,97.34,79.29t20.59,30.08V0h41.45V185.32Z" class="cls-1"/></g></g></svg>